<svg xmlns="http://www.w3.org/2000/svg" xmlns:xlink="http://www.w3.org/1999/xlink" id="Line" x="0px" y="0px" viewBox="0 0 200 200" style="enable-background:new 0 0 200 200;" xml:space="preserve"><style type="text/css">	.st0{fill:url(#SVGID_1_);}	.st1{fill:url(#SVGID_00000160165102735078842790000002536422165123963033_);}	.st2{fill:url(#SVGID_00000088832899310672872260000003244813937604458404_);}	.st3{fill:url(#SVGID_00000057114998547551804180000001611217971782057130_);}	.st4{fill:url(#SVGID_00000072260267059828089390000000947584262374865550_);}</style><linearGradient id="SVGID_1_" gradientUnits="userSpaceOnUse" x1="19.857" y1="164.9053" x2="180.1681" y2="164.9053">	<stop offset="0" style="stop-color:#440F94"></stop>	<stop offset="1" style="stop-color:#6273FC"></stop></linearGradient><path class="st0" d="M25.9,140.8c-0.9-1.6-2.9-2.1-4.4-1.2c-1.5,0.9-2.1,2.8-1.2,4.3c33.9,62.4,125.7,62.4,159.5,0 c0.9-1.6,0.3-3.6-1.3-4.4c-1.6-0.9-3.5-0.3-4.4,1.3c-22.5,40.9-74,55.8-114.9,33.3C45.2,166.3,33.6,154.8,25.9,140.8L25.9,140.8z"></path><linearGradient id="SVGID_00000117641990218930463010000017804840236547911833_" gradientUnits="userSpaceOnUse" x1="30.1758" y1="27.5534" x2="169.817" y2="27.5534">	<stop offset="0" style="stop-color:#440F94"></stop>	<stop offset="1" style="stop-color:#6273FC"></stop></linearGradient><path style="fill:url(#SVGID_00000117641990218930463010000017804840236547911833_);" d="M164.1,44.9c1.2,1.3,3.3,1.5,4.6,0.3 c1.3-1.2,1.5-3.1,0.4-4.5C134.3-1.4,65.7-1.4,30.9,40.7c-1.1,1.4-0.9,3.4,0.4,4.6c1.4,1.1,3.3,1,4.5-0.4 C68.2,5.8,131.8,5.8,164.1,44.9L164.1,44.9z"></path><linearGradient id="SVGID_00000176030689215593671910000008767169129690882178_" gradientUnits="userSpaceOnUse" x1="56.2048" y1="38.3565" x2="143.7876" y2="38.3565">	<stop offset="0" style="stop-color:#440F94"></stop>	<stop offset="1" style="stop-color:#6273FC"></stop></linearGradient><path style="fill:url(#SVGID_00000176030689215593671910000008767169129690882178_);" d="M57.5,42.4c-1.4,1.1-1.7,3.1-0.6,4.6 c1.1,1.4,3,1.7,4.5,0.7c23-16.9,54.3-16.9,77.3,0c1.5,1,3.5,0.7,4.5-0.8c1-1.4,0.7-3.4-0.7-4.5C117.2,23.8,82.8,23.8,57.5,42.4z"></path><linearGradient id="SVGID_00000010277485865028439740000013572623252262928307_" gradientUnits="userSpaceOnUse" x1="43.2814" y1="155.3143" x2="156.7153" y2="155.3143">	<stop offset="0" style="stop-color:#440F94"></stop>	<stop offset="1" style="stop-color:#6273FC"></stop></linearGradient><path style="fill:url(#SVGID_00000010277485865028439740000013572623252262928307_);" d="M100,171.5c21.9,0,42.5-10,56.1-27.2 c1.1-1.4,0.8-3.5-0.6-4.6c-1.4-1.1-3.4-0.8-4.5,0.5C126,173,74,173,49,140.3c-1.1-1.4-3.2-1.6-4.6-0.4c-1.3,1.1-1.6,3.1-0.5,4.5 C57.5,161.5,78.1,171.5,100,171.5L100,171.5z"></path><linearGradient id="SVGID_00000008831957687482837970000005639659941771854997_" gradientUnits="userSpaceOnUse" x1="8.9928" y1="100.0254" x2="191" y2="100.0254">	<stop offset="0" style="stop-color:#440F94"></stop>	<stop offset="1" style="stop-color:#6273FC"></stop></linearGradient><path style="fill:url(#SVGID_00000008831957687482837970000005639659941771854997_);" d="M10.6,108.3c-3.7,7-1,15.7,6,19.4 c2,1.1,4.2,1.6,6.5,1.6l36.2,0c-0.1,9,7.2,16.4,16.2,16.4c0,0,0,0,0,0l48.8,0c9,0,16.3-7.3,16.3-16.3c0-0.1,0-0.1,0-0.2h36.2 c7.9-0.1,14.3-6.6,14.2-14.5c0-2.3-0.6-4.5-1.6-6.5c-4.4-8.2-11.8-14.5-20.6-17.6c5-3.9,7.9-9.8,7.9-16.1c-1-27-39.9-27-40.8,0 c0,6.3,2.9,12.3,7.9,16.1c-8,2.8-14.8,8.2-19.3,15.4c-3.4-2.3-7-4.1-10.9-5.3c6.3-4.4,10-11.6,10-19.2c-1.1-31.2-46.1-31.2-47.2,0 c0,7.7,3.7,14.8,10,19.2c-3.9,1.3-7.5,3-10.9,5.3C71,98.9,64.2,93.5,56.2,90.7c5-3.9,7.9-9.8,8-16.1c-0.9-27-39.9-27-40.8,0 c0,6.3,2.9,12.3,7.9,16.1C22.5,93.8,15.1,100.1,10.6,108.3L10.6,108.3z M142.3,74.6c0.1-7.7,6.4-13.9,14-13.8 c7.6,0.1,13.7,6.2,13.8,13.8c-0.1,7.7-6.4,13.9-14,13.8C148.5,88.3,142.4,82.1,142.3,74.6L142.3,74.6z M156.2,95 c11.5,0,22,6.3,27.4,16.4c2,3.8,0.6,8.5-3.3,10.5c-1.1,0.6-2.3,0.9-3.5,0.9h-37.6c-2.3-4.8-5.6-9.1-9.6-12.7 C135.2,100.8,145.3,95,156.2,95L156.2,95z M82.9,81.5c0.7-22.6,33.4-22.6,34.1,0C116.4,104.1,83.6,104.1,82.9,81.5L82.9,81.5z  M133,124.8c2.5,4.8,0.7,10.8-4.1,13.3c-1.4,0.7-2.9,1.1-4.5,1.1l-48.8,0c-5.4,0-9.8-4.4-9.8-9.8c0-1.6,0.4-3.2,1.2-4.6 C80.7,98.7,119.3,98.7,133,124.8L133,124.8z M29.9,74.6c0.1-7.7,6.4-13.9,14-13.8c7.6,0.1,13.7,6.2,13.8,13.8 c-0.1,7.7-6.4,13.9-14,13.8C36.1,88.3,29.9,82.1,29.9,74.6z M43.7,95c10.9,0,21,5.8,26.6,15.1c-4,3.6-7.2,7.9-9.6,12.7H23.2 c-4.3-0.1-7.8-3.6-7.7-7.9c0-1.2,0.3-2.4,0.9-3.5C21.8,101.3,32.3,95,43.7,95z"></path></svg>